<?xml version="1.0" standalone="no"?>
<!DOCTYPE svg PUBLIC "-//W3C//DTD SVG 20010904//EN"
 "http://www.w3.org/TR/2001/REC-SVG-20010904/DTD/svg10.dtd">
<svg version="1.0" xmlns="http://www.w3.org/2000/svg"
 width="1583.000000pt" height="1904.000000pt" viewBox="0 0 1583.000000 1904.000000"
 preserveAspectRatio="xMidYMid meet">

<g transform="translate(0.000000,1904.000000) scale(0.100000,-0.100000)"
fill="#000000" stroke="none">
<path d="M7055 16343 c-1246 -61 -2443 -712 -3188 -1735 -534 -734 -811 -1584
-810 -2493 0 -319 22 -546 80 -835 233 -1159 950 -2179 1964 -2791 419 -252
909 -441 1377 -530 l122 -24 0 -1327 0 -1328 -805 0 -805 0 0 -690 0 -690 805
0 805 0 0 -725 0 -725 690 0 690 0 0 725 0 725 805 0 805 0 0 690 0 690 -805
0 -805 0 0 1329 0 1329 48 7 c88 12 347 74 477 114 246 75 392 131 610 235
749 358 1379 931 1803 1639 330 552 512 1099 587 1767 19 174 14 748 -9 915
-70 513 -186 909 -390 1330 -244 504 -558 927 -956 1289 -856 779 -1936 1166
-3095 1109z m659 -1402 c821 -133 1522 -586 1972 -1276 237 -363 375 -741 440
-1200 32 -229 19 -665 -26 -870 -5 -22 -16 -74 -25 -115 -150 -674 -574 -1304
-1150 -1705 -376 -262 -772 -419 -1245 -492 -90 -14 -176 -18 -395 -18 -285 0
-363 7 -575 51 -1030 214 -1871 992 -2165 2004 -178 613 -146 1262 91 1853
297 740 908 1338 1650 1616 247 92 481 145 774 175 19 2 145 2 280 0 189 -2
275 -7 374 -23z"/>
</g>
</svg>
