<?xml version="1.0" standalone="no"?>
<!DOCTYPE svg PUBLIC "-//W3C//DTD SVG 20010904//EN"
 "http://www.w3.org/TR/2001/REC-SVG-20010904/DTD/svg10.dtd">
<svg version="1.0" xmlns="http://www.w3.org/2000/svg"
 width="1894.000000pt" height="3030.000000pt" viewBox="0 0 1894.000000 3030.000000"
 preserveAspectRatio="xMidYMid meet">

<g transform="translate(0.000000,3030.000000) scale(0.100000,-0.100000)"
fill="#000000" stroke="none">
<path d="M11080 20228 l0 -688 1115 0 c613 0 1115 -3 1115 -8 0 -4 -557 -564
-1239 -1246 l-1238 -1238 -79 55 c-206 143 -536 320 -787 421 -1004 406 -2135
412 -3147 19 -144 -56 -420 -189 -565 -273 -556 -319 -1064 -800 -1418 -1341
-361 -552 -576 -1147 -663 -1837 -22 -172 -30 -614 -15 -795 88 -1042 506
-1954 1225 -2672 481 -480 1035 -821 1671 -1028 435 -142 847 -207 1315 -207
1003 1 1925 331 2697 967 154 127 436 408 554 553 554 677 865 1430 955 2310
23 230 15 707 -15 930 -46 335 -119 632 -231 935 -115 312 -296 664 -468 909
l-55 78 1239 1239 c681 681 1242 1239 1246 1239 5 0 8 -502 8 -1115 l0 -1115
690 0 690 0 0 2298 0 2297 -2300 0 -2300 0 0 -687z m-2285 -3798 c760 -121
1403 -507 1860 -1115 295 -392 470 -828 547 -1360 17 -119 17 -559 0 -685 -87
-639 -346 -1182 -776 -1628 -166 -171 -293 -278 -479 -402 -375 -251 -797
-406 -1252 -461 -159 -20 -528 -17 -685 5 -537 74 -996 268 -1412 598 -138
109 -373 347 -482 488 -309 403 -501 865 -572 1380 -21 154 -24 548 -5 690 48
360 135 649 287 953 137 274 307 508 531 732 437 437 984 713 1593 805 186 27
203 28 475 24 181 -2 272 -8 370 -24z"/>
</g>
</svg>
